<svg xmlns="http://www.w3.org/2000/svg" viewBox="0 0 932.74 154.04"><defs><style>.cls-1{fill:#fff;}</style></defs><g id="Calque_2" data-name="Calque 2"><g id="Calque_1-2" data-name="Calque 1"><rect class="cls-1" x="131.29" y="13.51" width="30.76" height="137.46"/><path class="cls-1" d="M262.21,136.36V91.18c0-31-15.38-41.72-43.07-41.72-32.1,0-45.56,16-46.52,34.8h28.84c1-9.42,6.34-13.65,17.49-13.65,8.46,0,12.5,3.46,12.5,9.23,0,8.26-12.5,10.19-25.19,12.69-23.07,4.61-37.49,13.65-37.49,33.25,0,16.54,11.54,28.26,32.3,28.26,13.07,0,24.61-6.15,31-13.45h.39c0,6.92,3.84,13.45,17.68,13.45A48.57,48.57,0,0,0,268,151v-7.31C264.13,143.66,262.21,141.55,262.21,136.36ZM231.45,115c0,9.42-6.35,17.88-19.61,17.88-7.5,0-12.31-3.46-12.31-11.54,0-6.15,4-11.15,16.15-13.84a99.38,99.38,0,0,0,15.77-4.42Z"/><path class="cls-1" d="M322,72.53c12.3,0,16.53,8.85,17.5,16.73h30.18c-2.5-22.88-19.61-39.8-48.26-39.8-30.37,0-50,21.73-50,52.29,0,30.76,19.61,52.29,50.75,52.29,28.26,0,45.95-16.91,47.49-40.18H339.49c-1,8.85-5.2,17.12-17.5,17.12-12.88,0-19.8-10.77-19.8-29.23S309.3,72.53,322,72.53Z"/><polygon class="cls-1" points="472.13 52.54 435.41 52.54 406.58 85.8 406.58 13.51 375.82 13.51 375.82 150.97 406.58 150.97 406.58 121.94 416.38 111.75 439.64 150.97 476.17 150.97 437.34 89.45 472.13 52.54"/><path class="cls-1" d="M523.85,88.87c-15.19-3.27-21.34-3.46-21.34-10.38,0-4.81,4.42-7.88,13.07-7.88,10,0,14.23,4.23,15.19,12.11H559.6c-1-17.3-13.26-33.26-44.79-33.26-27.68,0-43.06,13.65-43.06,31.53,0,20.57,18.45,26.72,35.18,30.38,15.57,3.46,24.8,4.61,24.8,13.07,0,5.57-4.81,8.46-13.46,8.46-12.11,0-18.65-4.81-19.61-14.61H469.82c1,20,14.42,35.75,49.6,35.75,27.3,0,43.07-11.34,43.07-32.1C562.49,99.64,543.26,93.1,523.85,88.87Z"/><path class="cls-1" d="M689.94,49.46c-16,0-24.6,7.5-33.06,17.3h-.39c-3.84-10.18-12.88-17.3-25.76-17.3A35.16,35.16,0,0,0,600,66.76h-.38V52.54H568.83V151h30.76V94.06c0-13.65,6.34-19.61,15.95-19.61,11,0,14,5,14,19.81V151h30.76V94.06c0-13.65,6.15-19.61,16-19.61,11,0,14,5,14,19.81V151h31.14V84.45C721.47,62,709.75,49.46,689.94,49.46Z"/><path class="cls-1" d="M747.23,13.51c-8.65,0-15.38,4.81-15.38,13.65,0,9,6.73,13.65,15.38,13.65s15.38-4.61,15.38-13.65C762.61,18.32,755.88,13.51,747.23,13.51Z"/><rect class="cls-1" x="731.85" y="52.54" width="30.76" height="98.43"/><path class="cls-1" d="M812.78,25.05H782V52.54H768.37V75.61H782v43.06c0,22.11,6.35,34,28.84,34a81,81,0,0,0,19-2.12V127.51c-13.07,0-17.11,0-17.11-11.15V75.61h17.11V52.54H812.78Z"/><path class="cls-1" d="M899.1,49.46c-15.76,0-25.38,8.27-30.57,17.3h-.38V13.51H837.39V151h30.76V94.06c0-13.65,8.07-19.61,17.88-19.61,11.15,0,16,5,16,19.81V151h30.76V84.45C932.74,62,919.86,49.46,899.1,49.46Z"/><rect class="cls-1" x="26.9" width="6.83" height="6.83"/><polygon class="cls-1" points="0 144.05 6.83 144.05 6.83 137.22 0 137.21 0 144.05"/><path class="cls-1" d="M40.65,109.9A13.66,13.66,0,0,1,54.31,96.25H68A41,41,0,0,0,68,14.3H47.52V41.62H68a13.66,13.66,0,1,1,0,27.31H54.31a41,41,0,0,0-13.66,2.34v-57H33.83V26.17H27V17.91H20.17V3.7H13.34v113H40.65Z"/><path class="cls-1" d="M109.13,79.54A48.15,48.15,0,0,1,88.79,98.29a13.65,13.65,0,0,1-7.16,25.27H5.78v6.82h7.4v6.83h14.5v6.83H19.6v6.83h62a41,41,0,0,0,27.5-71.34Z"/></g></g></svg>