<svg xmlns="http://www.w3.org/2000/svg" viewBox="0 0 122.6 150.88"><defs><style>.cls-1{fill:#fff;}</style></defs><g id="Calque_2" data-name="Calque 2"><g id="Calque_1-2" data-name="Calque 1"><rect class="cls-1" x="26.9" width="6.83" height="6.83"/><polygon class="cls-1" points="0 144.05 6.83 144.05 6.83 137.22 0 137.21 0 144.05"/><path class="cls-1" d="M40.65,109.9A13.66,13.66,0,0,1,54.31,96.25H68A41,41,0,0,0,68,14.3H47.52V41.62H68a13.66,13.66,0,1,1,0,27.31H54.31a41,41,0,0,0-13.66,2.34v-57H33.83V26.17H27V17.91H20.17V3.7H13.34v113H40.65Z"/><path class="cls-1" d="M109.13,79.54A48.15,48.15,0,0,1,88.79,98.29a13.65,13.65,0,0,1-7.16,25.27H5.78v6.82h7.4v6.83h14.5v6.83H19.6v6.83h62a41,41,0,0,0,27.5-71.34Z"/></g></g></svg>